# xmcd CD database file
#
# Track frame offsets:
#	163
#	16308
#	28608
#	44405
#	59454
#	72194
#	86497
#	99216
#	114833
#	126784
#	136682
#	148943
#	160956
#	173893
#	187977
#	200904
#	213920
#	226614
#	238445
#	253318
#	267151
#	279361
#	293308
#	304033
#
# Disc length: 4227 seconds
#
# Revision: 0
# Processed by: cddbd v1.5.2PL0 Copyright (c) Steve Scherf et al.
# Submitted via: CDex 1.70beta2
#
DISCID=53108118
DTITLE=Billie Jo Spears - The Ultimate Collection Disc 1
DYEAR=2007
DGENRE=Country
TTITLE0=Blanket On The Ground 1975
TTITLE1=What I've Got In Mind 1976
TTITLE2=Sing Me an Old Fashionesd Song 1976
TTITLE3=I Will Survive 1979
TTITLE4=I Never Promised You A Rose Garden 1980
TTITLE5=See The Funny Little Clown 1974
TTITLE6=Stay Away From The Apple Tree 1975
TTITLE7=Silver Wings And Golden Rings 1975
TTITLE8=Misty Blue 1976
TTITLE9=Never Did Like Whiskey 1976
TTITLE10=Lonely Hearts Club 1975 
TTITLE11=I've Got To Go 1978
TTITLE12=Country Roads 2003
TTITLE13=Desperado 1981
TTITLE14='57 Chevrolet 1978
TTITLE15=Yesterday 1978
TTITLE16=Livin' Our Love Together 1979
TTITLE17=Rainy Days an Stormy Nights 1979
TTITLE18=Another Somebody Done Somebody Wrong Song 1975
TTITLE19=If You Love Me (Let Me Know) 2003
TTITLE20=Thath's What Friends Are Fore 1976
TTITLE21=Standig Tall 1978
TTITLE22=Your Good Girl's Gonna Go Bad 1980
TTITLE23=What The Worls Needs Now Is Love 1981
EXTD=YEAR: 2007
EXTT0=
EXTT1=
EXTT2=
EXTT3=
EXTT4=
EXTT5=
EXTT6=
EXTT7=
EXTT8=
EXTT9=
EXTT10=
EXTT11=
EXTT12=
EXTT13=
EXTT14=
EXTT15=
EXTT16=
EXTT17=
EXTT18=
EXTT19=
EXTT20=
EXTT21=
EXTT22=
EXTT23=
PLAYORDER=
